<svg width="1190" height="227" viewBox="0 0 1190 227" fill="none" xmlns="http://www.w3.org/2000/svg">
<path d="M54.1232 53.8247L90.3203 174.513H91.6992L127.896 53.8247H182.02L123.759 224.994H58.26L0 53.8247H54.1232Z" fill="white"/>
<path d="M199.019 224.994V53.8247H326.226V91.268H246.937V120.688H319.676V158.131H246.937V187.551H325.881V224.994H199.019ZM235.906 38.7806C230.045 38.7806 225.075 36.8861 220.996 33.0972C216.917 29.3083 214.877 24.7393 214.877 19.3903C214.877 14.0412 216.917 9.47226 220.996 5.68336C225.075 1.89445 230.045 0 235.906 0C241.594 0 246.449 1.89445 250.471 5.68336C254.55 9.47226 256.59 14.0412 256.59 19.3903C256.59 24.7393 254.55 29.3083 250.471 33.0972C246.449 36.8861 241.594 38.7806 235.906 38.7806ZM290.718 38.7806C284.858 38.7806 279.888 36.8861 275.809 33.0972C271.729 29.3083 269.69 24.7393 269.69 19.3903C269.69 14.0412 271.729 9.47226 275.809 5.68336C279.888 1.89445 284.858 0 290.718 0C296.407 0 301.262 1.89445 305.283 5.68336C309.363 9.47226 311.402 14.0412 311.402 19.3903C311.402 24.7393 309.363 29.3083 305.283 33.0972C301.262 36.8861 296.407 38.7806 290.718 38.7806Z" fill="white"/>
<path d="M349.991 224.994V53.8247H426.177C439.277 53.8247 450.74 56.1371 460.565 60.7618C470.389 65.3865 478.031 72.0449 483.489 80.7371C488.948 89.4293 491.677 99.8488 491.677 111.996C491.677 124.254 488.861 134.59 483.231 143.003C477.658 151.417 469.815 157.769 459.703 162.059C449.648 166.35 437.898 168.495 424.454 168.495H378.949V132.389H414.801C420.432 132.389 425.229 131.72 429.194 130.383C433.216 128.99 436.29 126.789 438.415 123.78C440.599 120.771 441.69 116.843 441.69 111.996C441.69 107.092 440.599 103.108 438.415 100.044C436.29 96.9235 433.216 94.6391 429.194 93.1903C425.229 91.6859 420.432 90.9337 414.801 90.9337H397.909V224.994H349.991ZM453.411 146.43L497.537 224.994H445.482L402.391 146.43H453.411Z" fill="white"/>
<path d="M607.249 107.315C606.789 101.743 604.635 97.3971 600.785 94.2769C596.993 91.1566 591.219 89.5965 583.462 89.5965C578.521 89.5965 574.47 90.1815 571.31 91.3516C568.208 92.466 565.909 93.9983 564.416 95.9484C562.922 97.8986 562.146 100.127 562.089 102.635C561.974 104.696 562.347 106.563 563.209 108.235C564.128 109.85 565.565 111.327 567.518 112.664C569.472 113.946 571.971 115.116 575.016 116.175C578.061 117.233 581.681 118.18 585.875 119.016L600.354 122.025C610.122 124.031 618.481 126.678 625.434 129.965C632.386 133.252 638.074 137.125 642.498 141.582C646.922 145.984 650.168 150.943 652.237 156.459C654.362 161.976 655.454 167.993 655.512 174.513C655.454 185.768 652.553 195.296 646.807 203.096C641.061 210.897 632.845 216.831 622.159 220.899C611.529 224.966 598.745 227 583.807 227C568.466 227 555.079 224.799 543.645 220.397C532.269 215.995 523.421 209.226 517.101 200.088C510.838 190.894 507.678 179.137 507.621 164.817H553.126C553.413 170.055 554.763 174.457 557.176 178.023C559.589 181.589 562.979 184.291 567.346 186.13C571.77 187.969 577.027 188.888 583.117 188.888C588.231 188.888 592.511 188.275 595.959 187.049C599.406 185.824 602.02 184.124 603.802 181.951C605.583 179.778 606.502 177.298 606.559 174.513C606.502 171.894 605.611 169.609 603.888 167.659C602.221 165.653 599.464 163.87 595.614 162.31C591.765 160.694 586.565 159.19 580.015 157.797L562.433 154.119C546.805 150.832 534.481 145.344 525.461 137.654C516.498 129.909 512.045 119.351 512.102 105.978C512.045 95.1127 515.032 85.6125 521.065 77.4775C527.156 69.2868 535.573 62.907 546.317 58.338C557.119 53.769 569.5 51.4845 583.462 51.4845C597.711 51.4845 610.035 53.7969 620.435 58.4216C630.834 63.0463 638.849 69.5654 644.48 77.979C650.168 86.3369 653.041 96.1156 653.098 107.315H607.249Z" fill="white"/>
<path d="M668.913 91.268V53.8247H822.32V91.268H769.231V224.994H722.002V91.268H668.913Z" fill="white"/>
<path d="M840.354 224.994V53.8247H888.272V123.028H890.685L943.774 53.8247H999.621L939.982 130.049L1001 224.994H943.774L904.129 160.806L888.272 180.865V224.994H840.354Z" fill="white"/>
<path d="M1059.69 224.994H1007.98L1066.24 53.8247H1131.74L1190 224.994H1138.29L1099.68 100.963H1098.3L1059.69 224.994ZM1050.04 157.462H1147.25V192.231H1050.04V157.462Z" fill="white"/>
</svg>
